<svg width="56" height="48" viewBox="0 0 56 48" fill="none" xmlns="http://www.w3.org/2000/svg">
<rect width="56" height="48" rx="12" fill="white"/>
<path fill-rule="evenodd" clip-rule="evenodd" d="M32.2744 23.3714L20.2376 11.1768C19.7404 11.2891 19.333 11.7249 19.333 12.601V34.1843C19.333 35.0093 19.6535 35.5896 20.2462 35.6474L32.2744 23.3714ZM32.8189 22.7911L36.0354 19.5331C36.0354 19.5331 22.0578 11.8088 21.221 11.3464C20.8994 11.1686 20.5487 11.1066 20.2383 11.1766L32.8189 22.7911ZM33.3711 23.3511L37.0008 26.6521C37.0008 26.6521 41.1118 24.3729 41.2878 24.2752C41.8812 23.9462 42.503 23.1066 41.2878 22.4354C40.979 22.2646 37.0196 20.0771 37.0196 20.0771L33.3711 23.3511ZM20.2461 35.6474C20.5177 35.6823 20.8444 35.6094 21.2202 35.4011C21.9982 34.9698 30.353 30.3376 36.0382 27.1856L32.8182 23.8589L20.2461 35.6474Z" fill="#222222"/>
</svg>
