<svg width="56" height="48" viewBox="0 0 56 48" fill="none" xmlns="http://www.w3.org/2000/svg">
<rect width="56" height="47.8894" rx="12" fill="white"/>
<path d="M40 28.2606C35.2343 26.4524 34.4707 19.6927 39.1871 17.0983C37.7485 15.2984 35.727 14.255 33.8187 14.255C31.2979 14.255 30.2321 15.4583 28.4815 15.4583C26.6767 15.4583 25.3055 14.2583 23.1262 14.2583C20.9848 14.2583 18.7054 15.5637 17.2602 17.7955C15.2288 20.9389 15.5753 26.848 18.8696 31.8819C20.0471 33.6835 21.6203 35.7076 23.678 35.7257C25.5091 35.7439 26.0264 34.5538 28.5078 34.5406C30.9892 34.5258 31.4605 35.7406 33.2883 35.7208C35.3476 35.7043 37.0079 33.461 38.1854 31.6594C39.0294 30.3688 39.3448 29.7177 40 28.2606Z" fill="#222222"/>
<path d="M31.9072 12.2441C32.8235 11.0639 33.5182 9.39581 33.2669 7.69312C31.7692 7.79696 30.0186 8.75297 28.9972 9.99909C28.066 11.1282 27.3007 12.8078 27.5996 14.438C29.2369 14.4891 30.9268 13.51 31.9072 12.2441Z" fill="#222222"/>
</svg>
