<svg xmlns="http://www.w3.org/2000/svg" width="67" height="54" viewBox="0 0 67 54" fill="none">
  <path d="M33.5031 53.5796C30.0508 53.5816 26.6321 52.8926 23.4439 51.5524C17.0687 48.8629 11.9807 43.7646 9.2603 37.34H0.966858V20.6155H7.908C8.41415 18.5359 9.16726 16.5259 10.1509 14.6295C13.0253 9.07966 17.728 4.72254 23.4439 2.3134C26.6324 0.975273 30.0503 0.286499 33.5021 0.286499C36.9539 0.286499 40.3718 0.975273 43.5603 2.3134C47.3831 3.92159 50.7797 6.41485 53.4773 9.59281C56.1749 12.7708 58.0981 16.5448 59.0924 20.6116H66.0258V37.3361H57.744C55.7212 42.1494 52.345 46.255 48.0352 49.1423C43.7253 52.0296 38.6718 53.5713 33.5031 53.5757" fill="white"/>
  <path fill-rule="evenodd" clip-rule="evenodd" d="M33.5021 51.1497C20.323 51.1497 9.57227 40.2724 9.57227 26.9339C9.57227 13.5953 20.3211 2.72003 33.5021 2.72003C46.6831 2.72003 57.43 13.5973 57.43 26.9339C57.43 40.2704 46.6831 51.1497 33.5021 51.1497Z" fill="white"/>
  <path d="M33.5024 51.4487C20.1514 51.4487 9.25964 40.4365 9.25964 26.9338C9.25964 13.431 20.1495 2.41888 33.5024 2.41888C46.8554 2.41888 57.7433 13.431 57.7433 26.9338C57.7433 40.4365 46.8535 51.4487 33.5024 51.4487Z" stroke="#8F8F8F" stroke-width="0.5" stroke-miterlimit="22.93"/>
  <path fill-rule="evenodd" clip-rule="evenodd" d="M33.5024 51.4487C20.1514 51.4487 9.25964 40.4365 9.25964 26.9338C9.25964 13.431 20.1495 2.41888 33.5024 2.41888C46.8554 2.41888 57.7433 13.431 57.7433 26.9338C57.7433 40.4365 46.8535 51.4487 33.5024 51.4487Z" fill="#8F8F8F"/>
  <path fill-rule="evenodd" clip-rule="evenodd" d="M33.5022 50.2249C20.8177 50.2249 10.4727 39.762 10.4727 26.9357C10.4727 14.1094 20.8196 3.64459 33.5022 3.64459C46.1848 3.64459 56.5318 14.1055 56.5318 26.9337C56.5318 39.762 46.1848 50.2249 33.5022 50.2249Z" fill="white"/>
  <path fill-rule="evenodd" clip-rule="evenodd" d="M33.5029 48.3853C21.821 48.3853 12.2912 38.7494 12.2912 26.9338C12.2912 15.1182 21.8191 5.48425 33.5029 5.48425C45.1867 5.48425 54.7108 15.1201 54.7108 26.9338C54.7108 38.7475 45.1848 48.3853 33.5029 48.3853Z" fill="#8F8F8F"/>
  <path fill-rule="evenodd" clip-rule="evenodd" d="M33.5856 9.92383C36.939 9.92615 40.2165 10.9346 43.0037 12.8216C45.7908 14.7086 47.9626 17.3895 49.2443 20.5254C50.526 23.6612 50.8602 27.1112 50.2045 30.4393C49.5489 33.7673 47.9329 36.8239 45.5609 39.2227C43.1888 41.6214 40.1672 43.2546 36.878 43.9158C33.5889 44.577 30.1798 44.2365 27.0819 42.9373C23.9839 41.6381 21.3361 39.4386 19.4733 36.6169C17.6105 33.7951 16.6162 30.4778 16.6162 27.0843C16.6183 22.5316 18.4071 18.1662 21.5894 14.9481C24.7717 11.7301 29.0867 9.92279 33.5856 9.92383Z" fill="white"/>
  <path d="M3.19922 22.8479H63.8014V35.1053H3.19922V22.8479Z" fill="#E7E7E7"/>
  <path fill-rule="evenodd" clip-rule="evenodd" d="M12.8995 26.1929H9.26953V32.3196H12.8995L14.1107 31.0939V27.4186L12.8995 26.1929ZM12.8995 31.0939H10.4808V27.4167H12.8995V31.0939ZM20.1729 26.1929H15.3278V32.3196H20.1729V26.1929ZM18.9616 31.0939H16.5391V27.4167H18.9616V31.0939ZM21.3861 26.1929V32.3196H22.5974V29.8779H26.2292V26.1909L21.3861 26.1929ZM25.0199 28.6444H22.5954V27.4167H25.0199V28.6444ZM32.2914 26.1909H27.4424V32.3177H32.2914V26.1909ZM31.0782 31.0919H28.6537V27.4167H31.0782V31.0919Z" fill="#8F8F8F"/>
  <path fill-rule="evenodd" clip-rule="evenodd" d="M44.4044 26.1929V28.6444L41.9799 28.6424V26.1909L40.7706 26.1929V32.3196L41.9799 32.3177V29.8682H44.4044V32.3196L45.6176 32.3177V26.1909L44.4044 26.1929Z" fill="#8F8F8F"/>
  <path fill-rule="evenodd" clip-rule="evenodd" d="M51.6742 26.1909H46.8291V32.3177H51.6761L51.6742 26.1909ZM50.4629 31.0919H48.0404V27.4167H50.4648L50.4629 31.0919Z" fill="#8F8F8F"/>
  <path fill-rule="evenodd" clip-rule="evenodd" d="M57.7298 27.4167V26.1929H52.8847V32.3196H57.7298V31.0939H54.0979V29.8682H56.5185V28.6424L54.0979 28.6444V27.4167H57.7298ZM34.1438 28.9474L33.5256 26.5037L34.7137 26.1929L35.328 28.6326L35.3164 28.6346V28.6385L34.1438 28.9474Z" fill="#8F8F8F"/>
  <path fill-rule="evenodd" clip-rule="evenodd" d="M35.9239 32.3196V29.8682H35.3173V29.8721H35.3096V29.8682H35.3173V28.6444H35.3096V28.6385H35.3173V28.6444H35.9239V26.1929H37.1371V28.6444H37.7398V28.6385H37.7456V28.6444H37.7398V29.8682H37.7456V29.8721H37.7398V29.8682H37.1371V32.3196H35.9239Z" fill="#8F8F8F"/>
  <path fill-rule="evenodd" clip-rule="evenodd" d="M38.9201 28.9513L39.5363 26.5076L38.3482 26.1968L37.7339 28.6365L37.7455 28.6385V28.6444L38.9201 28.9513ZM38.9278 29.5534L39.5441 31.9971L38.3579 32.3079L37.7397 29.8681L37.7532 29.8642V29.8603L38.9278 29.5534ZM34.131 29.5573L33.5167 32.001L34.7009 32.3118L35.3172 29.8721L35.3056 29.8681V29.8642L34.131 29.5573Z" fill="#8F8F8F"/>
  <path fill-rule="evenodd" clip-rule="evenodd" d="M29.3325 20.0681H31.2644V21.1844C31.2651 21.2572 31.2515 21.3295 31.2243 21.397C31.1971 21.4645 31.1569 21.5258 31.106 21.5773C31.055 21.6288 30.9945 21.6696 30.9278 21.6971C30.8611 21.7246 30.7897 21.7384 30.7177 21.7376H29.8812C29.809 21.7386 29.7373 21.7251 29.6704 21.6977C29.6035 21.6703 29.5427 21.6296 29.4916 21.578C29.4405 21.5265 29.4 21.4651 29.3727 21.3975C29.3454 21.3299 29.3317 21.2574 29.3325 21.1844V20.0681ZM29.97 17.2276C30.0961 17.2276 30.2194 17.2654 30.3242 17.3363C30.429 17.4072 30.5108 17.5079 30.559 17.6258C30.6073 17.7437 30.6199 17.8734 30.5953 17.9985C30.5707 18.1237 30.51 18.2386 30.4208 18.3289C30.3317 18.4191 30.2181 18.4805 30.0944 18.5054C29.9707 18.5303 29.8425 18.5175 29.7261 18.4687C29.6096 18.4199 29.51 18.3372 29.44 18.2311C29.3699 18.125 29.3325 18.0003 29.3325 17.8727C29.3325 17.7016 29.3997 17.5375 29.5192 17.4165C29.6388 17.2955 29.8009 17.2276 29.97 17.2276ZM37.6144 17.2276C37.7404 17.2276 37.8637 17.2654 37.9685 17.3363C38.0734 17.4072 38.1551 17.5079 38.2033 17.6258C38.2516 17.7437 38.2642 17.8734 38.2396 17.9985C38.215 18.1237 38.1543 18.2386 38.0651 18.3289C37.976 18.4191 37.8624 18.4805 37.7387 18.5054C37.6151 18.5303 37.4869 18.5175 37.3704 18.4687C37.2539 18.4199 37.1543 18.3372 37.0843 18.2311C37.0142 18.125 36.9768 18.0003 36.9768 17.8727C36.9768 17.7019 37.0437 17.5381 37.1629 17.4172C37.282 17.2963 37.4437 17.2281 37.6124 17.2276H37.6144ZM36.3277 20.0681H38.2596V21.1844C38.2606 21.2573 38.2472 21.3297 38.2201 21.3973C38.193 21.4649 38.1528 21.5263 38.1018 21.5779C38.0508 21.6295 37.9901 21.6702 37.9233 21.6976C37.8565 21.7251 37.785 21.7387 37.7129 21.7376H36.8822C36.8103 21.7384 36.7389 21.7246 36.6723 21.6971C36.6058 21.6695 36.5453 21.6288 36.4945 21.5772C36.4438 21.5256 36.4037 21.4643 36.3767 21.3969C36.3497 21.3294 36.3364 21.2571 36.3374 21.1844L36.3277 20.0681ZM30.7795 12.7195C30.1613 12.7195 29.887 13.0655 29.6609 13.6324L28.9036 15.9393H28.8901C28.7808 15.938 28.6724 15.9587 28.5712 16.0004C28.4699 16.0421 28.3779 16.1038 28.3005 16.1819C28.2232 16.26 28.162 16.3529 28.1206 16.4553C28.0792 16.5576 28.0584 16.6673 28.0594 16.7779V18.9733C28.0586 19.0837 28.0796 19.1932 28.1212 19.2954C28.1627 19.3975 28.2239 19.4902 28.3012 19.5681C28.3786 19.646 28.4705 19.7075 28.5716 19.7491C28.6727 19.7906 28.781 19.8113 28.8901 19.81H38.6962C38.8053 19.8113 38.9136 19.7906 39.0147 19.7491C39.1158 19.7075 39.2077 19.646 39.2851 19.5681C39.3624 19.4902 39.4236 19.3975 39.4652 19.2954C39.5067 19.1932 39.5277 19.0837 39.5269 18.9733V16.7799C39.5262 16.5688 39.4458 16.366 39.3021 16.213C39.1585 16.06 38.9624 15.9683 38.7541 15.9569L38.0799 13.6363C37.8867 13.1261 37.597 12.7234 36.9768 12.7234L30.7795 12.7195ZM31.529 13.3646H36.1519C36.3217 13.356 36.4894 13.4061 36.6273 13.5066C36.7653 13.6072 36.8654 13.7522 36.9112 13.9179L37.1932 15.1729C37.2628 15.3567 37.2492 15.9393 36.7547 15.9393H30.8258C30.3216 15.9393 30.1941 15.5287 30.3062 15.2433L30.7408 13.9159C30.7989 13.7522 30.9061 13.6111 31.0475 13.5122C31.1888 13.4133 31.3572 13.3617 31.529 13.3646ZM41.2984 20.9048H42.2643V21.462C42.2649 21.4987 42.2581 21.5352 42.2443 21.5693C42.2306 21.6033 42.2102 21.6342 42.1845 21.6601C42.1587 21.686 42.128 21.7064 42.0943 21.7201C42.0605 21.7337 42.0244 21.7403 41.9881 21.7396H41.5747C41.5385 21.7401 41.5026 21.7333 41.4691 21.7195C41.4355 21.7057 41.4051 21.6853 41.3795 21.6594C41.3539 21.6335 41.3338 21.6027 41.3202 21.5688C41.3066 21.5349 41.2998 21.4986 41.3003 21.462L41.2984 20.9048ZM41.6172 19.4836C41.6802 19.4836 41.7418 19.5025 41.7942 19.5379C41.8467 19.5734 41.8875 19.6237 41.9116 19.6827C41.9358 19.7416 41.9421 19.8065 41.9298 19.8691C41.9175 19.9316 41.8871 19.9891 41.8425 20.0342C41.798 20.0793 41.7412 20.11 41.6793 20.1225C41.6175 20.1349 41.5534 20.1285 41.4952 20.1041C41.4369 20.0797 41.3871 20.0384 41.3521 19.9853C41.3171 19.9323 41.2984 19.8699 41.2984 19.8061C41.2984 19.7631 41.3069 19.7205 41.3234 19.6809C41.3399 19.6412 41.364 19.6053 41.3945 19.5752C41.4249 19.5452 41.461 19.5216 41.5005 19.5058C41.5401 19.4901 41.5824 19.4825 41.6249 19.4836H41.6172ZM45.4364 19.4836C45.4995 19.4832 45.5614 19.5018 45.614 19.537C45.6667 19.5722 45.7079 19.6224 45.7323 19.6813C45.7567 19.7402 45.7633 19.8051 45.7512 19.8678C45.7391 19.9305 45.7089 19.9882 45.6644 20.0335C45.6199 20.0788 45.5631 20.1097 45.5013 20.1223C45.4394 20.1349 45.3752 20.1287 45.3168 20.1043C45.2585 20.08 45.2086 20.0386 45.1735 19.9855C45.1383 19.9324 45.1196 19.87 45.1196 19.8061C45.1196 19.7633 45.128 19.7208 45.1444 19.6813C45.1608 19.6418 45.1848 19.606 45.215 19.5759C45.2452 19.5459 45.281 19.5223 45.3204 19.5064C45.3597 19.4905 45.4018 19.4828 45.4441 19.4836H45.4364ZM44.7931 20.9048H45.759V21.462C45.7598 21.4986 45.7533 21.5351 45.7398 21.5691C45.7263 21.6032 45.7061 21.6341 45.6805 21.66C45.6548 21.686 45.6243 21.7064 45.5906 21.7201C45.557 21.7337 45.521 21.7404 45.4847 21.7396H45.0713C45.0351 21.7401 44.9992 21.7333 44.9657 21.7195C44.9322 21.7057 44.9017 21.6853 44.8762 21.6594C44.8506 21.6335 44.8304 21.6027 44.8168 21.5688C44.8032 21.5349 44.7965 21.4986 44.797 21.462L44.7931 20.9048ZM42.019 17.2295C41.7099 17.2295 41.5727 17.4016 41.4607 17.687L41.0743 18.8404C41.0199 18.8399 40.9659 18.8503 40.9155 18.8712C40.8651 18.892 40.8193 18.9228 40.7808 18.9618C40.7423 19.0007 40.7119 19.047 40.6913 19.098C40.6707 19.149 40.6604 19.2037 40.6609 19.2587V20.3574C40.6604 20.4126 40.6707 20.4673 40.6913 20.5184C40.7118 20.5695 40.7422 20.616 40.7807 20.6551C40.8192 20.6942 40.8649 20.7252 40.9153 20.7462C40.9657 20.7673 41.0198 20.778 41.0743 20.7777H45.9773C46.0319 20.778 46.0859 20.7673 46.1363 20.7462C46.1867 20.7252 46.2325 20.6942 46.2709 20.6551C46.3094 20.616 46.3398 20.5695 46.3604 20.5184C46.3809 20.4673 46.3913 20.4126 46.3908 20.3574V19.2587C46.3904 19.1531 46.3503 19.0516 46.2785 18.9749C46.2066 18.8983 46.1086 18.8522 46.0044 18.8463L45.6682 17.687C45.5697 17.4328 45.4268 17.2295 45.1177 17.2295H42.019ZM42.3957 17.5521H44.7139C44.8001 17.5462 44.8856 17.5707 44.956 17.6212C45.0264 17.6718 45.0773 17.7455 45.1003 17.8297L45.2394 18.4572C45.2741 18.5491 45.2684 18.8482 45.0211 18.8482H42.0518C42.0084 18.8537 41.9644 18.8476 41.9241 18.8304C41.8837 18.8132 41.8486 18.7856 41.8222 18.7504C41.7958 18.7151 41.779 18.6734 41.7735 18.6295C41.768 18.5856 41.7741 18.541 41.791 18.5002L42.0093 17.8375C42.0364 17.7537 42.0893 17.6808 42.1602 17.6295C42.2311 17.5781 42.3163 17.551 42.4034 17.5521H42.3957ZM21.8601 20.9048H22.826V21.462C22.8268 21.4986 22.8203 21.5351 22.8068 21.5691C22.7933 21.6032 22.7731 21.6341 22.7475 21.66C22.7218 21.686 22.6913 21.7064 22.6576 21.7201C22.624 21.7337 22.588 21.7404 22.5517 21.7396H22.1383C22.1021 21.7401 22.0662 21.7333 22.0327 21.7195C21.9992 21.7057 21.9687 21.6853 21.9432 21.6594C21.9176 21.6335 21.8974 21.6027 21.8838 21.5688C21.8702 21.5349 21.8635 21.4986 21.864 21.462L21.8601 20.9048ZM22.1789 19.4836C22.2419 19.4836 22.3035 19.5025 22.356 19.5379C22.4084 19.5734 22.4492 19.6237 22.4734 19.6827C22.4975 19.7416 22.5038 19.8065 22.4915 19.8691C22.4792 19.9316 22.4488 19.9891 22.4043 20.0342C22.3597 20.0793 22.3029 20.11 22.2411 20.1225C22.1792 20.1349 22.1151 20.1285 22.0569 20.1041C21.9986 20.0797 21.9489 20.0384 21.9138 19.9853C21.8788 19.9323 21.8601 19.8699 21.8601 19.8061C21.8606 19.7217 21.8935 19.6408 21.952 19.5806C22.0104 19.5204 22.0897 19.4856 22.1731 19.4836H22.1789ZM26.0001 19.4836C26.0631 19.4836 26.1247 19.5025 26.1772 19.5379C26.2296 19.5734 26.2704 19.6237 26.2946 19.6827C26.3187 19.7416 26.325 19.8065 26.3127 19.8691C26.3004 19.9316 26.27 19.9891 26.2255 20.0342C26.1809 20.0793 26.1241 20.11 26.0623 20.1225C26.0004 20.1349 25.9363 20.1285 25.8781 20.1041C25.8198 20.0797 25.7701 20.0384 25.735 19.9853C25.7 19.9323 25.6813 19.8699 25.6813 19.8061C25.6811 19.7635 25.6892 19.7213 25.7052 19.6819C25.7213 19.6425 25.7449 19.6068 25.7748 19.5768C25.8046 19.5467 25.8401 19.523 25.8791 19.507C25.9181 19.491 25.9599 19.483 26.002 19.4836H26.0001ZM25.3548 20.9048H26.3208V21.462C26.3215 21.4985 26.315 21.5348 26.3017 21.5687C26.2883 21.6026 26.2683 21.6334 26.2428 21.6593C26.2174 21.6852 26.1871 21.7057 26.1537 21.7195C26.1203 21.7333 26.0844 21.7401 26.0484 21.7396H25.6311C25.5949 21.7401 25.559 21.7333 25.5255 21.7195C25.492 21.7057 25.4615 21.6853 25.436 21.6594C25.4104 21.6335 25.3902 21.6027 25.3766 21.5688C25.363 21.5349 25.3562 21.4986 25.3568 21.462L25.3548 20.9048ZM22.5807 17.2295C22.2735 17.2295 22.1344 17.4016 22.0224 17.687L21.636 18.8404C21.5816 18.8399 21.5276 18.8503 21.4772 18.8712C21.4268 18.892 21.381 18.9228 21.3425 18.9618C21.304 19.0007 21.2736 19.047 21.253 19.098C21.2324 19.149 21.2221 19.2037 21.2226 19.2587V20.3574C21.2218 20.4127 21.232 20.4675 21.2525 20.5187C21.2729 20.57 21.3033 20.6165 21.3418 20.6557C21.3804 20.6948 21.4262 20.7258 21.4768 20.7468C21.5273 20.7677 21.5814 20.7783 21.636 20.7777H26.5391C26.5937 20.7783 26.648 20.7677 26.6986 20.7468C26.7492 20.7259 26.7952 20.6949 26.8339 20.6558C26.8726 20.6167 26.9031 20.5701 26.9238 20.5189C26.9445 20.4676 26.9549 20.4128 26.9544 20.3574V19.2587C26.9536 19.1532 26.9133 19.052 26.8416 18.9754C26.7699 18.8989 26.6721 18.8527 26.568 18.8463L26.23 17.687C26.1314 17.4328 25.9885 17.2295 25.6794 17.2295H22.5807ZM22.9574 17.5521H25.2756C25.3618 17.5462 25.4473 17.5707 25.5177 17.6212C25.5881 17.6718 25.639 17.7455 25.662 17.8297L25.803 18.4572C25.8378 18.5491 25.8301 18.8482 25.5828 18.8482H22.6097C22.5663 18.8537 22.5222 18.8476 22.4819 18.8304C22.4416 18.8132 22.4065 18.7856 22.38 18.7504C22.3536 18.7151 22.3368 18.6734 22.3313 18.6295C22.3259 18.5856 22.3319 18.541 22.3489 18.5002L22.5672 17.8375C22.5939 17.7538 22.6464 17.681 22.717 17.6297C22.7875 17.5783 22.8724 17.5511 22.9593 17.5521H22.9574ZM30.6327 39.1737H32.0777C32.1545 39.1737 32.2282 39.2046 32.2826 39.2596C32.3369 39.3146 32.3675 39.3891 32.3675 39.4669C32.3675 39.5447 32.3369 39.6193 32.2826 39.6743C32.2282 39.7293 32.1545 39.7602 32.0777 39.7602H30.6327V41.2166C30.6327 41.2944 30.6021 41.3689 30.5478 41.4239C30.4934 41.4789 30.4197 41.5098 30.3429 41.5098C30.266 41.5098 30.1923 41.4789 30.138 41.4239C30.0836 41.3689 30.0531 41.2944 30.0531 41.2166V37.7153C30.0536 37.6379 30.0844 37.5638 30.1386 37.5092C30.1929 37.4546 30.2664 37.424 30.3429 37.424H32.6611C32.7379 37.424 32.8117 37.4549 32.866 37.5099C32.9203 37.5649 32.9509 37.6395 32.9509 37.7173C32.9509 37.795 32.9203 37.8696 32.866 37.9246C32.8117 37.9796 32.7379 38.0105 32.6611 38.0105H30.6327V39.1737ZM37.5603 37.7153C37.5603 37.638 37.5299 37.564 37.476 37.5093C37.422 37.4547 37.3488 37.424 37.2724 37.424H36.6929C36.6216 37.4236 36.5527 37.45 36.4995 37.498C36.4463 37.546 36.4127 37.6123 36.405 37.684L35.5396 40.3134L34.6586 37.6293V37.6175C34.6393 37.5605 34.6028 37.511 34.5544 37.4759C34.5059 37.4409 34.4478 37.4221 34.3882 37.4221H33.8086C33.7324 37.4226 33.6595 37.4534 33.6056 37.5079C33.5518 37.5625 33.5213 37.6362 33.5208 37.7133V41.2166C33.5208 41.2944 33.5513 41.3689 33.6056 41.4239C33.66 41.4789 33.7337 41.5098 33.8105 41.5098C33.8874 41.5098 33.9611 41.4789 34.0154 41.4239C34.0698 41.3689 34.1003 41.2944 34.1003 41.2166V38.0085L35.2807 41.3515C35.3047 41.3996 35.3414 41.44 35.3868 41.4682C35.4321 41.4965 35.4844 41.5114 35.5376 41.5114C35.5909 41.5114 35.6431 41.4965 35.6885 41.4682C35.7338 41.44 35.7705 41.3996 35.7946 41.3515L36.9807 38.0105V41.2166C36.9807 41.2944 37.0112 41.3689 37.0656 41.4239C37.1199 41.4789 37.1936 41.5098 37.2705 41.5098C37.3473 41.5098 37.4211 41.4789 37.4754 41.4239C37.5297 41.3689 37.5603 41.2944 37.5603 41.2166V37.7153Z" fill="#8F8F8F"/>
  <path d="M43.5059 11.1497L43.0384 11.4859L42.9959 11.5172L42.965 11.4722L42.3024 10.528L42.2715 10.485L42.314 10.4537L42.7834 10.1175L42.8259 10.0862L42.8568 10.1311L43.5175 11.0754L43.5484 11.1184L43.5059 11.1497Z" fill="white"/>
  <path d="M43.8428 9.22197L43.9954 9.78304L44.0089 9.83387L43.9568 9.84755L42.8537 10.1545L42.8034 10.1682L42.7899 10.1173L42.6373 9.55627L42.6218 9.50544L42.674 9.49175L43.7771 9.18483L43.8292 9.17114L43.8428 9.22197ZM41.6076 11.4975L41.1362 11.1671L41.0938 11.1378L41.1227 11.0948L41.7757 10.1408L41.8047 10.0958L41.8491 10.1271L42.3185 10.4575L42.363 10.4868L42.3321 10.5318L41.681 11.4838L41.6521 11.5288L41.6076 11.4975Z" fill="white"/>
  <path d="M42.0472 9.57002L41.854 10.1174L41.8366 10.1682L41.7864 10.1506L40.7084 9.75965L40.6582 9.74206L40.6775 9.69123L40.8707 9.14385L40.8881 9.09302L40.9383 9.11257L42.0163 9.5016L42.0646 9.52115L42.0472 9.57002Z" fill="white"/>
  <path d="M42.6268 9.56227L42.0531 9.56618H42.0009V9.5134L41.9932 8.35412V8.30134L42.0473 8.29938L42.621 8.29547H42.6732V8.35021L42.6809 9.50753V9.56227H42.6268Z" fill="white"/>
  <path fill-rule="evenodd" clip-rule="evenodd" d="M2.93359 35.3517H64.0689V22.6055H2.93359V35.3517ZM63.5358 34.8629H3.46678V23.0923H63.5358V34.8629Z" fill="#8F8F8F"/>
  <path d="M17.8255 15.2041L17.6323 15.7514V15.7632L18.096 16.0877L18.5635 15.7514L18.4128 15.2001H17.8236L17.8255 15.2041ZM19.2744 16.7797L18.8069 17.116L18.7644 17.1473L18.7335 17.1043L18.094 16.1932L17.4565 17.1258L17.4256 17.1707L17.3812 17.1394L16.9098 16.8091L16.8673 16.7778L16.8982 16.7348L17.5473 15.7847L16.4848 15.3937L16.4346 15.3761L16.452 15.3253L16.6451 14.7779L16.6625 14.727L16.7128 14.7446L17.7753 15.1356V13.9392H18.4591V15.1317L19.5564 14.8268L19.6067 14.8131L19.6202 14.8639L19.7728 15.425L19.7863 15.4758L19.7361 15.4895L18.6485 15.7905L19.2976 16.7172L19.3285 16.7602L19.2744 16.7797Z" fill="white"/>
  <path d="M25.8868 11.1497L25.4174 11.4859L25.3749 11.5172L25.3439 11.4722L24.6813 10.528L24.6523 10.485L24.6948 10.4537L25.1624 10.1175L25.2049 10.0862L25.2358 10.1311L25.8984 11.0754L25.9293 11.1184L25.8868 11.1497Z" fill="white"/>
  <path d="M26.2216 9.22209L26.3742 9.78316L26.3877 9.83399L26.3375 9.84767L25.2344 10.1546L25.1842 10.1683L25.1687 10.1175L25.018 9.55639L25.0026 9.50556L25.0547 9.49187L26.1578 9.18495L26.208 9.17126L26.2216 9.22209ZM23.9883 11.4976L23.517 11.1673L23.4725 11.1379L23.5034 11.093L24.1545 10.1409L24.1854 10.0959L24.2279 10.1272L24.6993 10.4576L24.7437 10.4869L24.7128 10.5319L24.0617 11.484L24.0308 11.5289L23.9883 11.4976Z" fill="white"/>
  <path d="M24.43 9.57002L24.2368 10.1174L24.2194 10.1682L24.1692 10.1506L23.0912 9.75965L23.041 9.74206L23.0584 9.69123L23.2516 9.14385L23.2709 9.09302L23.3192 9.11257L24.3972 9.5016L24.4474 9.52115L24.43 9.57002Z" fill="white"/>
  <path d="M25.0087 9.56221L24.4349 9.56612H24.3827L24.3808 9.51334L24.375 8.35406V8.30127L24.4272 8.29932L25.0009 8.29541H25.0531V8.35015L25.0608 9.50747V9.56221H25.0087Z" fill="white"/>
  <path d="M33.4397 7.35903L33.2465 7.90641V7.91814L33.7101 8.24266L34.1776 7.90641L34.0269 7.35512H33.4358L33.4397 7.35903ZM34.8963 8.94253L34.4288 9.27877L34.3863 9.31005L34.3554 9.26705L33.7101 8.34627L33.0726 9.27877L33.0417 9.32373L32.9992 9.29246L32.5259 8.96012L32.4834 8.92884L32.5143 8.88387L33.1634 7.93378L32.1009 7.54279L32.0507 7.5252L32.068 7.47437L32.2612 6.92699L32.2786 6.87616L32.3288 6.89375L33.3914 7.28474V6.08832H34.0752V7.28083L35.1725 6.97586L35.2228 6.96217L35.2363 7.013L35.3889 7.57407L35.4024 7.6249L35.3522 7.63858L34.2646 7.93964L34.9137 8.86628L34.9446 8.90929L34.8963 8.94253Z" fill="white"/>
  <path d="M50.0802 16.7876L49.6126 17.1239L49.5701 17.1551L49.5392 17.1121L48.8766 16.1659L48.8457 16.1229L48.8882 16.0916L49.3576 15.7554L49.4001 15.7241L49.4311 15.7691L50.0937 16.7133L50.1246 16.7563L50.0802 16.7876Z" fill="white"/>
  <path d="M50.416 14.8602L50.5686 15.4212L50.5822 15.4721L50.5319 15.4857L49.4269 15.7927L49.3767 15.8063L49.3632 15.7555L49.2106 15.1944L49.197 15.1436L49.2473 15.1299L50.3523 14.823L50.4025 14.8093L50.416 14.8602ZM48.1828 17.1377L47.7095 16.8053L47.667 16.776L47.696 16.733L48.349 15.779L48.3779 15.734L48.4224 15.7653L48.8937 16.0957L48.9362 16.127L48.9073 16.17L48.2562 17.124L48.2253 17.167L48.1828 17.1377Z" fill="white"/>
  <path d="M48.6241 15.2081L48.4309 15.7555L48.4116 15.8063L48.3633 15.7887L47.2834 15.3977L47.2351 15.3801L47.2525 15.3293L47.4457 14.7839L47.4631 14.733L47.5133 14.7506L48.5913 15.1416L48.6415 15.1592L48.6241 15.2081Z" fill="white"/>
  <path d="M49.201 15.2001L48.6273 15.2041H48.5751V15.1513L48.5693 13.992L48.5674 13.9392L48.6215 13.9373L49.1952 13.9353H49.2474V13.9881L49.2551 15.1474V15.2001H49.201Z" fill="white"/>
  <path d="M46.1367 42.4247C45.8373 42.6808 45.4316 42.5831 45.1418 42.2292C44.852 41.8754 44.8231 41.4473 45.1225 41.199C45.4219 40.9507 45.8315 41.0465 46.1213 41.3945C46.411 41.7425 46.4439 42.1569 46.1387 42.4169L46.1367 42.4247ZM46.4787 42.8841C47.1645 42.2977 47.2186 41.4903 46.7086 40.8784C46.1985 40.2665 45.4451 40.1824 44.7767 40.7572C44.1083 41.3319 44.0523 42.1374 44.5681 42.7571C45.053 43.3435 45.8257 43.4472 46.4864 42.8861L46.4787 42.8841ZM38.276 44.278L39.1512 46.7725L39.9934 46.4695L40.1461 45.6015C40.2122 45.2217 40.2509 44.8375 40.262 44.452H40.2716C40.3574 44.8161 40.4651 45.1745 40.5942 45.5253L40.8222 46.1762L41.4616 45.9456L40.5865 43.4511L39.8505 43.715L39.6979 44.712C39.6457 45.0561 39.5877 45.494 39.551 45.885H39.5356C39.4216 45.494 39.2825 45.0932 39.1492 44.712L38.9135 44.0375L38.276 44.278ZM33.3517 45.4979L33.8714 45.5135L33.825 46.9778L32.9943 46.9504C33.0732 46.8279 33.138 46.6968 33.1875 46.5594C33.2766 46.3148 33.3268 46.0575 33.3363 45.797L33.3517 45.4979ZM32.693 44.8821L32.6698 45.6113C32.6641 45.8651 32.6218 46.1167 32.5442 46.3581C32.4746 46.5664 32.3764 46.7638 32.2525 46.9445L32.011 46.9602L31.9994 47.8438L32.579 47.8614L32.608 47.5271L34.2056 47.5799V47.9083L34.7852 47.9259L34.8354 47.056L34.5418 47.0227L34.6094 44.9466L32.693 44.8821ZM26.6154 45.0873L26.8781 44.6964C26.967 44.5654 27.0713 44.3953 27.1524 44.2624C27.1524 44.4227 27.1389 44.6221 27.137 44.7785L27.1234 45.2672L26.6154 45.0873ZM27.0674 45.8126L27.05 46.4851L27.8228 46.7471V43.9535L26.8723 43.6329L25.2592 45.8791L25.9914 46.1274L26.3507 45.5702L27.0674 45.8126ZM21.7529 41.1208C21.8212 41.1605 21.8858 41.2063 21.9461 41.2576C22.176 41.4375 22.2146 41.6252 22.0987 41.7776C21.9538 41.9731 21.7123 41.9458 21.4921 41.7776C21.441 41.7394 21.3932 41.6969 21.3491 41.6506L21.7529 41.1208ZM19.9061 42.3368L20.4856 42.7864L21.0207 42.0865C21.0555 42.1178 21.1057 42.1686 21.1695 42.2175C21.4242 42.4472 21.7536 42.5739 22.0948 42.5733C22.2126 42.5611 22.3265 42.5236 22.4288 42.4632C22.5311 42.4029 22.6194 42.3211 22.6879 42.2234C22.7671 42.1251 22.8216 42.0088 22.8465 41.8845C22.8714 41.7601 22.866 41.6316 22.8309 41.5098C22.7248 41.2269 22.5344 40.9844 22.2861 40.8158C22.0355 40.6132 21.7701 40.4302 21.4921 40.2684L19.9061 42.3368Z" fill="white"/>
</svg>