<svg width="76" height="116" viewBox="0 0 76 116" fill="none" xmlns="http://www.w3.org/2000/svg">
<g filter="url(#filter0_d_865_82240)">
<path d="M13 4L13 24H33C21.9543 24 13 15.0457 13 4Z" fill="white"/>
<path d="M33 84H13L13 104C13 92.9543 21.9543 84 33 84Z" fill="white"/>
<path d="M13 24H33L33 84H13L13 24Z" fill="white"/>
<path d="M63 54C63 70.5685 49.5685 84 33 84C16.4315 84 3 70.5685 3 54C3 37.4315 16.4315 24 33 24C49.5685 24 63 37.4315 63 54Z" fill="white"/>
</g>
<g opacity="0.5">
<path d="M35.3246 54.8875C35.4417 54.7713 35.5347 54.633 35.5982 54.4807C35.6617 54.3284 35.6943 54.165 35.6943 54C35.6943 53.835 35.6617 53.6716 35.5982 53.5192C35.5347 53.3669 35.4417 53.2287 35.3246 53.1125L31.5746 49.3625C31.3392 49.1205 31.0173 48.9819 30.6798 48.9772C30.3422 48.9725 30.0166 49.1021 29.7746 49.3375C29.5326 49.5728 29.394 49.8947 29.3893 50.2323C29.3846 50.5699 29.5142 50.8955 29.7496 51.1375L32.6746 54L29.7496 56.8625C29.6324 56.9787 29.5394 57.1169 29.476 57.2692C29.4125 57.4216 29.3798 57.585 29.3798 57.75C29.3798 57.915 29.4125 58.0784 29.476 58.2307C29.5394 58.383 29.6324 58.5213 29.7496 58.6375C29.8658 58.7546 30.004 58.8476 30.1564 58.9111C30.3087 58.9745 30.4721 59.0072 30.6371 59.0072C30.8021 59.0072 30.9655 58.9745 31.1178 58.9111C31.2701 58.8476 31.4084 58.7546 31.5246 58.6375L35.3246 54.8875ZM36.6746 51.1375L39.5496 54L36.6746 56.8625C36.5574 56.9787 36.4644 57.1169 36.401 57.2692C36.3375 57.4216 36.3048 57.585 36.3048 57.75C36.3048 57.915 36.3375 58.0784 36.401 58.2307C36.4644 58.383 36.5574 58.5213 36.6746 58.6375C36.7908 58.7546 36.929 58.8476 37.0814 58.9111C37.2337 58.9745 37.3971 59.0072 37.5621 59.0072C37.7271 59.0072 37.8905 58.9745 38.0428 58.9111C38.1951 58.8476 38.3334 58.7546 38.4496 58.6375L42.1996 54.8875C42.3167 54.7713 42.4097 54.633 42.4732 54.4807C42.5367 54.3284 42.5693 54.165 42.5693 54C42.5693 53.835 42.5367 53.6716 42.4732 53.5192C42.4097 53.3669 42.3167 53.2287 42.1996 53.1125L38.4496 49.3625C38.2142 49.1271 37.895 48.9949 37.5621 48.9949C37.2292 48.9949 36.91 49.1271 36.6746 49.3625C36.4392 49.5978 36.307 49.9171 36.307 50.25C36.307 50.5828 36.4392 50.9021 36.6746 51.1375Z" fill="black"/>
</g>
<defs>
<filter id="filter0_d_865_82240" x="0" y="0" width="76" height="116" filterUnits="userSpaceOnUse" color-interpolation-filters="sRGB">
<feFlood flood-opacity="0" result="BackgroundImageFix"/>
<feColorMatrix in="SourceAlpha" type="matrix" values="0 0 0 0 0 0 0 0 0 0 0 0 0 0 0 0 0 0 127 0" result="hardAlpha"/>
<feOffset dx="5" dy="4"/>
<feGaussianBlur stdDeviation="4"/>
<feComposite in2="hardAlpha" operator="out"/>
<feColorMatrix type="matrix" values="0 0 0 0 0 0 0 0 0 0 0 0 0 0 0 0 0 0 0.07 0"/>
<feBlend mode="normal" in2="BackgroundImageFix" result="effect1_dropShadow_865_82240"/>
<feBlend mode="normal" in="SourceGraphic" in2="effect1_dropShadow_865_82240" result="shape"/>
</filter>
</defs>
</svg>
