<svg width="32" height="32" viewBox="0 0 32 32" fill="none" xmlns="http://www.w3.org/2000/svg">
<g id="Icons / Outline / arrow-right">
<path id="curve" fill-rule="evenodd" clip-rule="evenodd" d="M17.7834 7.11612C18.2716 6.62796 19.063 6.62796 19.5512 7.11611L27.5512 15.1161C27.7857 15.3505 27.9174 15.6685 27.9174 16C27.9174 16.3315 27.7857 16.6495 27.5512 16.8839L19.5512 24.8839C19.063 25.372 18.2716 25.372 17.7834 24.8839C17.2953 24.3957 17.2953 23.6043 17.7834 23.1161L23.6496 17.25H5.33398C4.64363 17.25 4.08398 16.6904 4.08398 16C4.08398 15.3096 4.64363 14.75 5.33398 14.75H23.6496L17.7834 8.88389C17.2953 8.39573 17.2953 7.60428 17.7834 7.11612Z" fill="#222222"/>
</g>
</svg>
