<svg width="32" height="32" viewBox="0 0 32 32" fill="none" xmlns="http://www.w3.org/2000/svg">
<g id="Icons / Outline / arrow-right">
<path id="curve" fill-rule="evenodd" clip-rule="evenodd" d="M14.2166 7.11612C13.7284 6.62796 12.937 6.62796 12.4488 7.11611L4.44875 15.1161C4.21433 15.3505 4.08263 15.6685 4.08263 16C4.08263 16.3315 4.21433 16.6495 4.44875 16.8839L12.4488 24.8839C12.937 25.372 13.7284 25.372 14.2166 24.8839C14.7047 24.3957 14.7047 23.6043 14.2166 23.1161L8.35041 17.25H26.666C27.3564 17.25 27.916 16.6904 27.916 16C27.916 15.3096 27.3564 14.75 26.666 14.75H8.35041L14.2166 8.88389C14.7047 8.39573 14.7047 7.60428 14.2166 7.11612Z" fill="#222222"/>
</g>
</svg>
