<svg width="30" height="30" viewBox="0 0 30 30" fill="none" xmlns="http://www.w3.org/2000/svg">
<g id="Up Chevron" opacity="0.5">
<path id="Vector" d="M14.3246 15.8875C14.4417 15.7713 14.5347 15.633 14.5982 15.4807C14.6617 15.3284 14.6943 15.165 14.6943 15C14.6943 14.835 14.6617 14.6716 14.5982 14.5192C14.5347 14.3669 14.4417 14.2287 14.3246 14.1125L10.5746 10.3625C10.3392 10.1205 10.0173 9.98186 9.67977 9.97717C9.3422 9.97248 9.0166 10.1021 8.77459 10.3375C8.53258 10.5728 8.39399 10.8947 8.3893 11.2323C8.38461 11.5699 8.51421 11.8955 8.74959 12.1375L11.6746 15L8.74959 17.8625C8.63243 17.9787 8.53944 18.1169 8.47597 18.2692C8.41251 18.4216 8.37984 18.585 8.37984 18.75C8.37984 18.915 8.41251 19.0784 8.47597 19.2307C8.53943 19.383 8.63243 19.5213 8.74959 19.6375C8.86579 19.7546 9.00404 19.8476 9.15637 19.9111C9.30869 19.9745 9.47207 20.0072 9.63709 20.0072C9.8021 20.0072 9.96548 19.9745 10.1178 19.9111C10.2701 19.8476 10.4084 19.7546 10.5246 19.6375L14.3246 15.8875ZM15.6746 12.1375L18.5496 15L15.6746 17.8625C15.5574 17.9787 15.4644 18.1169 15.401 18.2692C15.3375 18.4216 15.3048 18.585 15.3048 18.75C15.3048 18.915 15.3375 19.0784 15.401 19.2307C15.4644 19.383 15.5574 19.5213 15.6746 19.6375C15.7908 19.7546 15.929 19.8476 16.0814 19.9111C16.2337 19.9745 16.3971 20.0072 16.5621 20.0072C16.7271 20.0072 16.8905 19.9745 17.0428 19.9111C17.1951 19.8476 17.3334 19.7546 17.4496 19.6375L21.1996 15.8875C21.3167 15.7713 21.4097 15.633 21.4732 15.4807C21.5367 15.3284 21.5693 15.165 21.5693 15C21.5693 14.835 21.5367 14.6716 21.4732 14.5192C21.4097 14.3669 21.3167 14.2287 21.1996 14.1125L17.4496 10.3625C17.2142 10.1271 16.895 9.99485 16.5621 9.99485C16.2292 9.99485 15.91 10.1271 15.6746 10.3625C15.4392 10.5978 15.307 10.9171 15.307 11.25C15.307 11.5828 15.4392 11.9021 15.6746 12.1375Z" fill="black"/>
</g>
</svg>
